<svg width="40" height="40" viewBox="0 0 40 40" fill="none" xmlns="http://www.w3.org/2000/svg">
<path d="M29.9998 30.8346C30.6629 30.8346 31.2988 30.5712 31.7676 30.1024C32.2364 29.6336 32.4998 28.9977 32.4998 28.3346C32.4998 27.6716 32.2364 27.0357 31.7676 26.5669C31.2988 26.098 30.6629 25.8346 29.9998 25.8346C29.3368 25.8346 28.7009 26.098 28.2321 26.5669C27.7632 27.0357 27.4998 27.6716 27.4998 28.3346C27.4998 28.9977 27.7632 29.6336 28.2321 30.1024C28.7009 30.5712 29.3368 30.8346 29.9998 30.8346ZM32.4998 15.8346H28.3332V20.0013H35.7665L32.4998 15.8346ZM9.99984 30.8346C10.6629 30.8346 11.2988 30.5712 11.7676 30.1024C12.2364 29.6336 12.4998 28.9977 12.4998 28.3346C12.4998 27.6716 12.2364 27.0357 11.7676 26.5669C11.2988 26.098 10.6629 25.8346 9.99984 25.8346C9.3368 25.8346 8.70091 26.098 8.23207 26.5669C7.76323 27.0357 7.49984 27.6716 7.49984 28.3346C7.49984 28.9977 7.76323 29.6336 8.23207 30.1024C8.70091 30.5712 9.3368 30.8346 9.99984 30.8346ZM33.3332 13.3346L38.3332 20.0013V28.3346H34.9998C34.9998 29.6607 34.4731 30.9325 33.5354 31.8702C32.5977 32.8079 31.3259 33.3346 29.9998 33.3346C28.6738 33.3346 27.402 32.8079 26.4643 31.8702C25.5266 30.9325 24.9998 29.6607 24.9998 28.3346H14.9998C14.9998 29.6607 14.4731 30.9325 13.5354 31.8702C12.5977 32.8079 11.3259 33.3346 9.99984 33.3346C8.67376 33.3346 7.40199 32.8079 6.4643 31.8702C5.52662 30.9325 4.99984 29.6607 4.99984 28.3346H1.6665V10.0013C1.6665 8.1513 3.14984 6.66797 4.99984 6.66797H28.3332V13.3346H33.3332ZM13.3332 10.0013V15.0013H8.33317V18.3346H13.3332V23.3346H16.6665V18.3346H21.6665V15.0013H16.6665V10.0013H13.3332Z" fill="black"/>
</svg>
