<svg width="147" height="49" viewBox="0 0 147 49" fill="none" xmlns="http://www.w3.org/2000/svg">
<rect width="147" height="49" rx="24.5" fill="white"/>
<g clip-path="url(#clip0_5206_40849)">
<path d="M31.9774 14.51C31.9349 14.4625 30.4037 14.5288 29.0712 15.975C27.7387 17.42 27.9437 19.0775 27.9737 19.12C28.0037 19.1625 29.8737 19.2288 31.0674 17.5475C32.2612 15.8663 32.0199 14.5588 31.9774 14.51V14.51ZM36.1199 29.1763C36.0599 29.0563 33.2137 27.6338 33.4787 24.8988C33.7437 22.1625 35.5724 21.4125 35.6012 21.3313C35.6299 21.25 34.8549 20.3438 34.0337 19.885C33.4307 19.5616 32.7633 19.3763 32.0799 19.3425C31.9449 19.3388 31.4762 19.2238 30.5124 19.4875C29.8774 19.6613 28.4462 20.2238 28.0524 20.2463C27.6574 20.2688 26.4824 19.5938 25.2187 19.415C24.4099 19.2588 23.5524 19.5788 22.9387 19.825C22.3262 20.07 21.1612 20.7675 20.3462 22.6213C19.5312 24.4738 19.9574 27.4088 20.2624 28.3213C20.5674 29.2325 21.0437 30.7263 21.8537 31.8163C22.5737 33.0463 23.5287 33.9 23.9274 34.19C24.3262 34.48 25.4512 34.6725 26.2312 34.2738C26.8587 33.8888 27.9912 33.6675 28.4387 33.6838C28.8849 33.7 29.7649 33.8763 30.6662 34.3575C31.3799 34.6038 32.0549 34.5013 32.7312 34.2263C33.4074 33.95 34.3862 32.9025 35.5287 30.7788C35.9624 29.7913 36.1599 29.2575 36.1199 29.1763V29.1763Z" fill="#111111"/>
<path d="M31.9774 14.51C31.9349 14.4625 30.4037 14.5288 29.0712 15.975C27.7387 17.42 27.9437 19.0775 27.9737 19.12C28.0037 19.1625 29.8737 19.2288 31.0674 17.5475C32.2612 15.8663 32.0199 14.5588 31.9774 14.51V14.51ZM36.1199 29.1763C36.0599 29.0563 33.2137 27.6338 33.4787 24.8988C33.7437 22.1625 35.5724 21.4125 35.6012 21.3313C35.6299 21.25 34.8549 20.3438 34.0337 19.885C33.4307 19.5616 32.7633 19.3763 32.0799 19.3425C31.9449 19.3388 31.4762 19.2238 30.5124 19.4875C29.8774 19.6613 28.4462 20.2238 28.0524 20.2463C27.6574 20.2688 26.4824 19.5938 25.2187 19.415C24.4099 19.2588 23.5524 19.5788 22.9387 19.825C22.3262 20.07 21.1612 20.7675 20.3462 22.6213C19.5312 24.4738 19.9574 27.4088 20.2624 28.3213C20.5674 29.2325 21.0437 30.7263 21.8537 31.8163C22.5737 33.0463 23.5287 33.9 23.9274 34.19C24.3262 34.48 25.4512 34.6725 26.2312 34.2738C26.8587 33.8888 27.9912 33.6675 28.4387 33.6838C28.8849 33.7 29.7649 33.8763 30.6662 34.3575C31.3799 34.6038 32.0549 34.5013 32.7312 34.2263C33.4074 33.95 34.3862 32.9025 35.5287 30.7788C35.9624 29.7913 36.1599 29.2575 36.1199 29.1763V29.1763Z" fill="#111111"/>
</g>
<path d="M54.9063 19.144C54.1223 19.144 53.4343 18.964 52.8423 18.604C52.2503 18.236 51.7903 17.728 51.4623 17.08C51.1343 16.424 50.9703 15.668 50.9703 14.812C50.9703 13.956 51.1343 13.2 51.4623 12.544C51.7983 11.888 52.2703 11.376 52.8783 11.008C53.4943 10.64 54.2183 10.456 55.0503 10.456C55.9943 10.456 56.7782 10.684 57.4023 11.14C58.0343 11.596 58.4423 12.224 58.6263 13.024H57.4622C57.3503 12.52 57.0823 12.12 56.6583 11.824C56.2423 11.528 55.7063 11.38 55.0503 11.38C54.4343 11.38 53.8983 11.52 53.4423 11.8C52.9863 12.072 52.6303 12.464 52.3743 12.976C52.1263 13.488 52.0023 14.1 52.0023 14.812C52.0023 15.524 52.1263 16.136 52.3743 16.648C52.6223 17.16 52.9663 17.556 53.4062 17.836C53.8463 18.108 54.3583 18.244 54.9423 18.244C55.8383 18.244 56.5143 17.984 56.9703 17.464C57.4263 16.936 57.6863 16.216 57.7503 15.304H55.3263V14.512H58.7823V19H57.8583L57.7743 17.62C57.4703 18.108 57.0983 18.484 56.6583 18.748C56.2183 19.012 55.6343 19.144 54.9063 19.144ZM62.9923 19.144C62.4243 19.144 61.9203 19.016 61.4803 18.76C61.0403 18.496 60.6923 18.132 60.4363 17.668C60.1883 17.204 60.0643 16.656 60.0643 16.024C60.0643 15.4 60.1883 14.856 60.4363 14.392C60.6843 13.92 61.0283 13.556 61.4683 13.3C61.9163 13.036 62.4323 12.904 63.0163 12.904C63.5923 12.904 64.0883 13.036 64.5043 13.3C64.9283 13.556 65.2523 13.896 65.4763 14.32C65.7003 14.744 65.8123 15.2 65.8123 15.688C65.8123 15.776 65.8083 15.864 65.8003 15.952C65.8003 16.04 65.8003 16.14 65.8003 16.252H61.0603C61.0843 16.708 61.1883 17.088 61.3723 17.392C61.5643 17.688 61.8003 17.912 62.0803 18.064C62.3683 18.216 62.6723 18.292 62.9923 18.292C63.4083 18.292 63.7563 18.196 64.0363 18.004C64.3163 17.812 64.5203 17.552 64.6483 17.224H65.6443C65.4843 17.776 65.1763 18.236 64.7203 18.604C64.2723 18.964 63.6963 19.144 62.9923 19.144ZM62.9923 13.756C62.5123 13.756 62.0843 13.904 61.7083 14.2C61.3403 14.488 61.1283 14.912 61.0723 15.472H64.8163C64.7923 14.936 64.6083 14.516 64.2643 14.212C63.9203 13.908 63.4963 13.756 62.9923 13.756ZM69.3011 19C68.7571 19 68.3291 18.868 68.0171 18.604C67.7051 18.34 67.5491 17.864 67.5491 17.176V13.9H66.5171V13.048H67.5491L67.6811 11.62H68.5571V13.048H70.3091V13.9H68.5571V17.176C68.5571 17.552 68.6331 17.808 68.7851 17.944C68.9371 18.072 69.2051 18.136 69.5891 18.136H70.2131V19H69.3011ZM75.3775 11.728C75.1775 11.728 75.0095 11.664 74.8735 11.536C74.7455 11.4 74.6815 11.232 74.6815 11.032C74.6815 10.84 74.7455 10.68 74.8735 10.552C75.0095 10.424 75.1775 10.36 75.3775 10.36C75.5695 10.36 75.7335 10.424 75.8695 10.552C76.0055 10.68 76.0735 10.84 76.0735 11.032C76.0735 11.232 76.0055 11.4 75.8695 11.536C75.7335 11.664 75.5695 11.728 75.3775 11.728ZM74.8735 19V13.048H75.8815V19H74.8735ZM79.9886 19C79.4446 19 79.0166 18.868 78.7046 18.604C78.3926 18.34 78.2366 17.864 78.2366 17.176V13.9H77.2046V13.048H78.2366L78.3686 11.62H79.2446V13.048H80.9966V13.9H79.2446V17.176C79.2446 17.552 79.3206 17.808 79.4726 17.944C79.6246 18.072 79.8926 18.136 80.2766 18.136H80.9006V19H79.9886ZM88.165 19.144C87.605 19.144 87.101 19.016 86.653 18.76C86.205 18.504 85.849 18.144 85.585 17.68C85.329 17.208 85.201 16.656 85.201 16.024C85.201 15.392 85.333 14.844 85.597 14.38C85.861 13.908 86.217 13.544 86.665 13.288C87.121 13.032 87.629 12.904 88.189 12.904C88.749 12.904 89.253 13.032 89.701 13.288C90.149 13.544 90.501 13.908 90.757 14.38C91.021 14.844 91.153 15.392 91.153 16.024C91.153 16.656 91.021 17.208 90.757 17.68C90.493 18.144 90.133 18.504 89.677 18.76C89.229 19.016 88.725 19.144 88.165 19.144ZM88.165 18.28C88.509 18.28 88.829 18.196 89.125 18.028C89.421 17.86 89.661 17.608 89.845 17.272C90.029 16.936 90.121 16.52 90.121 16.024C90.121 15.528 90.029 15.112 89.845 14.776C89.669 14.44 89.433 14.188 89.137 14.02C88.841 13.852 88.525 13.768 88.189 13.768C87.845 13.768 87.525 13.852 87.229 14.02C86.933 14.188 86.693 14.44 86.509 14.776C86.325 15.112 86.233 15.528 86.233 16.024C86.233 16.52 86.325 16.936 86.509 17.272C86.693 17.608 86.929 17.86 87.217 18.028C87.513 18.196 87.829 18.28 88.165 18.28ZM92.5546 19V13.048H93.4666L93.5266 14.116C93.7186 13.74 93.9946 13.444 94.3546 13.228C94.7146 13.012 95.1226 12.904 95.5786 12.904C96.2826 12.904 96.8426 13.12 97.2586 13.552C97.6826 13.976 97.8946 14.632 97.8946 15.52V19H96.8866V15.628C96.8866 14.388 96.3746 13.768 95.3506 13.768C94.8386 13.768 94.4106 13.956 94.0666 14.332C93.7306 14.7 93.5626 15.228 93.5626 15.916V19H92.5546Z" fill="#111111"/>
<path d="M50.6687 37L54.2807 27.2H55.9047L59.4887 37H57.9207L57.0807 34.606H53.0767L52.2367 37H50.6687ZM53.4967 33.43H56.6607L55.0787 28.964L53.4967 33.43ZM60.7993 40.08V30.056H62.1293L62.2833 31.134C62.5073 30.8073 62.8153 30.518 63.2073 30.266C63.5993 30.014 64.1033 29.888 64.7193 29.888C65.3913 29.888 65.984 30.0467 66.4973 30.364C67.0107 30.6813 67.412 31.1153 67.7013 31.666C68 32.2167 68.1493 32.842 68.1493 33.542C68.1493 34.242 68 34.8673 67.7013 35.418C67.412 35.9593 67.0107 36.3887 66.4973 36.706C65.984 37.014 65.3867 37.168 64.7053 37.168C64.164 37.168 63.6833 37.0607 63.2633 36.846C62.8527 36.6313 62.526 36.328 62.2833 35.936V40.08H60.7993ZM64.4533 35.88C65.088 35.88 65.6107 35.6653 66.0213 35.236C66.432 34.7973 66.6373 34.228 66.6373 33.528C66.6373 33.0707 66.544 32.6647 66.3573 32.31C66.1707 31.9553 65.914 31.68 65.5873 31.484C65.2607 31.2787 64.8827 31.176 64.4533 31.176C63.8187 31.176 63.296 31.3953 62.8853 31.834C62.484 32.2727 62.2833 32.8373 62.2833 33.528C62.2833 34.228 62.484 34.7973 62.8853 35.236C63.296 35.6653 63.8187 35.88 64.4533 35.88ZM69.7544 40.08V30.056H71.0844L71.2384 31.134C71.4624 30.8073 71.7704 30.518 72.1624 30.266C72.5544 30.014 73.0584 29.888 73.6744 29.888C74.3464 29.888 74.9391 30.0467 75.4524 30.364C75.9657 30.6813 76.3671 31.1153 76.6564 31.666C76.9551 32.2167 77.1044 32.842 77.1044 33.542C77.1044 34.242 76.9551 34.8673 76.6564 35.418C76.3671 35.9593 75.9657 36.3887 75.4524 36.706C74.9391 37.014 74.3417 37.168 73.6604 37.168C73.1191 37.168 72.6384 37.0607 72.2184 36.846C71.8077 36.6313 71.4811 36.328 71.2384 35.936V40.08H69.7544ZM73.4084 35.88C74.0431 35.88 74.5657 35.6653 74.9764 35.236C75.3871 34.7973 75.5924 34.228 75.5924 33.528C75.5924 33.0707 75.4991 32.6647 75.3124 32.31C75.1257 31.9553 74.8691 31.68 74.5424 31.484C74.2157 31.2787 73.8377 31.176 73.4084 31.176C72.7737 31.176 72.2511 31.3953 71.8404 31.834C71.4391 32.2727 71.2384 32.8373 71.2384 33.528C71.2384 34.228 71.4391 34.7973 71.8404 35.236C72.2511 35.6653 72.7737 35.88 73.4084 35.88ZM85.5268 37.168C84.8082 37.168 84.1782 37.042 83.6368 36.79C83.0955 36.538 82.6708 36.1787 82.3628 35.712C82.0642 35.2453 81.9102 34.69 81.9008 34.046H83.4688C83.4782 34.5687 83.6602 35.012 84.0148 35.376C84.3695 35.74 84.8688 35.922 85.5128 35.922C86.0822 35.922 86.5255 35.7867 86.8428 35.516C87.1695 35.236 87.3328 34.8813 87.3328 34.452C87.3328 34.1067 87.2535 33.8267 87.0948 33.612C86.9455 33.3973 86.7355 33.22 86.4648 33.08C86.2035 32.94 85.9002 32.814 85.5548 32.702C85.2095 32.59 84.8455 32.4687 84.4628 32.338C83.7068 32.086 83.1375 31.7593 82.7548 31.358C82.3815 30.9567 82.1948 30.4293 82.1948 29.776C82.1855 29.2253 82.3115 28.7447 82.5728 28.334C82.8435 27.9233 83.2168 27.606 83.6928 27.382C84.1782 27.1487 84.7428 27.032 85.3868 27.032C86.0215 27.032 86.5768 27.1487 87.0528 27.382C87.5382 27.6153 87.9162 27.942 88.1868 28.362C88.4575 28.7727 88.5975 29.2533 88.6068 29.804H87.0388C87.0388 29.552 86.9735 29.314 86.8428 29.09C86.7122 28.8567 86.5208 28.6653 86.2688 28.516C86.0168 28.3667 85.7088 28.292 85.3448 28.292C84.8782 28.2827 84.4908 28.3993 84.1828 28.642C83.8842 28.8847 83.7348 29.2207 83.7348 29.65C83.7348 30.0327 83.8468 30.3267 84.0708 30.532C84.2948 30.7373 84.6028 30.91 84.9948 31.05C85.3868 31.1807 85.8348 31.3347 86.3388 31.512C86.8242 31.6707 87.2582 31.862 87.6408 32.086C88.0235 32.31 88.3268 32.604 88.5508 32.968C88.7842 33.332 88.9008 33.794 88.9008 34.354C88.9008 34.8487 88.7748 35.3107 88.5228 35.74C88.2708 36.16 87.8928 36.5053 87.3888 36.776C86.8848 37.0373 86.2642 37.168 85.5268 37.168ZM93.3793 37C92.698 37 92.1566 36.8367 91.7553 36.51C91.354 36.174 91.1533 35.5813 91.1533 34.732V31.302H89.9633V30.056H91.1533L91.3353 28.292H92.6373V30.056H94.5973V31.302H92.6373V34.732C92.6373 35.1147 92.7166 35.3807 92.8753 35.53C93.0433 35.67 93.328 35.74 93.7293 35.74H94.5273V37H93.3793ZM99.1977 37.168C98.5351 37.168 97.9377 37.0187 97.4057 36.72C96.8831 36.412 96.4677 35.9873 96.1597 35.446C95.8517 34.8953 95.6977 34.256 95.6977 33.528C95.6977 32.8 95.8517 32.1653 96.1597 31.624C96.4771 31.0733 96.9017 30.6487 97.4337 30.35C97.9657 30.042 98.5584 29.888 99.2117 29.888C99.8744 29.888 100.467 30.042 100.99 30.35C101.522 30.6487 101.942 31.0733 102.25 31.624C102.567 32.1653 102.726 32.8 102.726 33.528C102.726 34.256 102.567 34.8953 102.25 35.446C101.942 35.9873 101.522 36.412 100.99 36.72C100.458 37.0187 99.8604 37.168 99.1977 37.168ZM99.1977 35.894C99.5524 35.894 99.8791 35.8053 100.178 35.628C100.486 35.4507 100.733 35.1893 100.92 34.844C101.106 34.4893 101.2 34.0507 101.2 33.528C101.2 33.0053 101.106 32.5713 100.92 32.226C100.742 31.8713 100.5 31.6053 100.192 31.428C99.8931 31.2507 99.5664 31.162 99.2117 31.162C98.8571 31.162 98.5257 31.2507 98.2177 31.428C97.9191 31.6053 97.6764 31.8713 97.4897 32.226C97.3031 32.5713 97.2097 33.0053 97.2097 33.528C97.2097 34.0507 97.3031 34.4893 97.4897 34.844C97.6764 35.1893 97.9191 35.4507 98.2177 35.628C98.5164 35.8053 98.8431 35.894 99.1977 35.894ZM104.331 37V30.056H105.661L105.787 31.372C106.029 30.9147 106.365 30.5553 106.795 30.294C107.233 30.0233 107.761 29.888 108.377 29.888V31.442H107.971C107.56 31.442 107.191 31.512 106.865 31.652C106.547 31.7827 106.291 32.0113 106.095 32.338C105.908 32.6553 105.815 33.0987 105.815 33.668V37H104.331ZM112.706 37.168C112.024 37.168 111.418 37.0187 110.886 36.72C110.363 36.412 109.952 35.9873 109.654 35.446C109.355 34.9047 109.206 34.2747 109.206 33.556C109.206 32.828 109.35 32.1887 109.64 31.638C109.938 31.0873 110.349 30.658 110.872 30.35C111.404 30.042 112.02 29.888 112.72 29.888C113.401 29.888 113.994 30.042 114.498 30.35C115.002 30.6487 115.394 31.05 115.674 31.554C115.954 32.058 116.094 32.6133 116.094 33.22C116.094 33.3133 116.089 33.416 116.08 33.528C116.08 33.6307 116.075 33.7473 116.066 33.878H110.662C110.708 34.55 110.928 35.0633 111.32 35.418C111.721 35.7633 112.183 35.936 112.706 35.936C113.126 35.936 113.476 35.8427 113.756 35.656C114.045 35.46 114.26 35.1987 114.4 34.872H115.884C115.697 35.5253 115.324 36.0713 114.764 36.51C114.213 36.9487 113.527 37.168 112.706 37.168ZM112.706 31.106C112.211 31.106 111.772 31.2553 111.39 31.554C111.007 31.8433 110.774 32.282 110.69 32.87H114.61C114.582 32.3287 114.39 31.8993 114.036 31.582C113.681 31.2647 113.238 31.106 112.706 31.106Z" fill="#111111"/>
<defs>
<clipPath id="clip0_5206_40849">
<rect width="20" height="20" fill="white" transform="translate(18 14.5)"/>
</clipPath>
</defs>
</svg>
