<svg width="41" height="40" viewBox="0 0 41 40" fill="none" xmlns="http://www.w3.org/2000/svg">
<path d="M18.8333 0V5H22.1667V0H18.8333ZM13.6333 2.43333L11.2667 4.78333L14.8167 8.33333L17.1667 5.96667L13.6333 2.43333ZM27.3667 2.43333L23.8333 5.96667L26.1833 8.33333L29.7333 4.8L27.3667 2.43333M20.5 8.33333C19.6159 8.33333 18.7681 8.68452 18.143 9.30964C17.5179 9.93476 17.1667 10.7826 17.1667 11.6667V13.3333H11.3333C10.2333 13.3333 9.3 14.0333 8.96667 15L5.5 25V38.3333C5.5 38.7754 5.67559 39.1993 5.98816 39.5118C6.30072 39.8244 6.72464 40 7.16667 40H8.83333C9.27536 40 9.69928 39.8244 10.0118 39.5118C10.3244 39.1993 10.5 38.7754 10.5 38.3333V36.6667H30.5V38.3333C30.5 38.7754 30.6756 39.1993 30.9882 39.5118C31.3007 39.8244 31.7246 40 32.1667 40H33.8333C34.2754 40 34.6993 39.8244 35.0118 39.5118C35.3244 39.1993 35.5 38.7754 35.5 38.3333V25L32.0333 15C31.7 14.0333 30.7667 13.3333 29.6667 13.3333H23.8333V11.6667C23.8333 10.7826 23.4821 9.93476 22.857 9.30964C22.2319 8.68452 21.3841 8.33333 20.5 8.33333M11.3333 15.8333H29.6667L32.1667 23.3333H8.83333L11.3333 15.8333ZM11.3333 26.6667C11.9964 26.6667 12.6323 26.9301 13.1011 27.3989C13.5699 27.8677 13.8333 28.5036 13.8333 29.1667C13.8333 29.8297 13.5699 30.4656 13.1011 30.9344C12.6323 31.4033 11.9964 31.6667 11.3333 31.6667C10.6703 31.6667 10.0344 31.4033 9.56557 30.9344C9.09673 30.4656 8.83333 29.8297 8.83333 29.1667C8.83333 28.5036 9.09673 27.8677 9.56557 27.3989C10.0344 26.9301 10.6703 26.6667 11.3333 26.6667M29.6667 26.6667C30.3297 26.6667 30.9656 26.9301 31.4344 27.3989C31.9033 27.8677 32.1667 28.5036 32.1667 29.1667C32.1667 29.8297 31.9033 30.4656 31.4344 30.9344C30.9656 31.4033 30.3297 31.6667 29.6667 31.6667C29.0036 31.6667 28.3677 31.4033 27.8989 30.9344C27.4301 30.4656 27.1667 29.8297 27.1667 29.1667C27.1667 28.5036 27.4301 27.8677 27.8989 27.3989C28.3677 26.9301 29.0036 26.6667 29.6667 26.6667V26.6667Z" fill="#111111"/>
</svg>
