<svg width="24" height="24" viewBox="0 0 24 24" fill="none" xmlns="http://www.w3.org/2000/svg">
<path d="M17.0002 15H19.0002V17H17.0002V15ZM17.0002 11H19.0002V13H17.0002V11ZM17.0002 7H19.0002V9H17.0002V7ZM13.7402 7L15.0002 7.84V7H13.7402Z" fill="#2D4BF3"/>
<path d="M10 3V4.51L12 5.84V5H21V19H17V21H23V3H10Z" fill="#2D4BF3"/>
<path d="M8.17 5.70312L15 10.2531V21.0031H1V10.4831L8.17 5.70312ZM10 19.0031H13V11.1631L8.17 8.09313L3 11.3831V19.0031H6V13.0031H10V19.0031Z" fill="#2D4BF3"/>
<path opacity="0.3" d="M10 19.0038H13V11.1638L8.17 8.09375L3 11.3838V19.0038H6V13.0038H10V19.0038Z" fill="#2D4BF3"/>
</svg>
