<svg width="40" height="40" viewBox="0 0 40 40" fill="none" xmlns="http://www.w3.org/2000/svg">
<path d="M11.6665 35C10.2776 35 9.09706 34.5139 8.12484 33.5417C7.15262 32.5694 6.6665 31.3889 6.6665 30H1.6665V18.3333H19.9998V8.33333H26.6665V5H31.6665V8.33333H34.9998L38.3332 18.3333V30H33.3332C33.3332 31.3889 32.8471 32.5694 31.8748 33.5417C30.9026 34.5139 29.7221 35 28.3332 35C26.9443 35 25.7637 34.5139 24.7915 33.5417C23.8193 32.5694 23.3332 31.3889 23.3332 30H16.6665C16.6665 31.3889 16.1804 32.5694 15.2082 33.5417C14.2359 34.5139 13.0554 35 11.6665 35ZM11.6665 31.6667C12.1387 31.6667 12.5348 31.5067 12.8548 31.1867C13.1737 30.8678 13.3332 30.4722 13.3332 30C13.3332 29.5278 13.1737 29.1322 12.8548 28.8133C12.5348 28.4933 12.1387 28.3333 11.6665 28.3333C11.1943 28.3333 10.7982 28.4933 10.4782 28.8133C10.1593 29.1322 9.99984 29.5278 9.99984 30C9.99984 30.4722 10.1593 30.8678 10.4782 31.1867C10.7982 31.5067 11.1943 31.6667 11.6665 31.6667ZM28.3332 31.6667C28.8054 31.6667 29.2009 31.5067 29.5198 31.1867C29.8398 30.8678 29.9998 30.4722 29.9998 30C29.9998 29.5278 29.8398 29.1322 29.5198 28.8133C29.2009 28.4933 28.8054 28.3333 28.3332 28.3333C27.861 28.3333 27.4654 28.4933 27.1465 28.8133C26.8265 29.1322 26.6665 29.5278 26.6665 30C26.6665 30.4722 26.8265 30.8678 27.1465 31.1867C27.4654 31.5067 27.861 31.6667 28.3332 31.6667ZM23.3332 18.3333H34.8332L32.5832 11.6667H23.3332V18.3333ZM1.6665 16.6667V14.1667H3.33317V10.8333H1.6665V8.33333H18.3332V10.8333H16.6665V14.1667H18.3332V16.6667H1.6665ZM5.83317 14.1667H8.74984V10.8333H5.83317V14.1667ZM11.2498 14.1667H14.1665V10.8333H11.2498V14.1667ZM19.9998 21.6667V26.6667H15.3748C14.9026 26.1389 14.3471 25.7289 13.7082 25.4367C13.0693 25.1456 12.3887 25 11.6665 25C10.9443 25 10.2637 25.1456 9.62484 25.4367C8.98595 25.7289 8.43039 26.1389 7.95817 26.6667H4.99984V21.6667H19.9998ZM23.3332 21.6667H34.9998V26.6667H32.0415C31.5693 26.1389 31.0137 25.7289 30.3748 25.4367C29.736 25.1456 29.0554 25 28.3332 25C27.611 25 26.9304 25.1456 26.2915 25.4367C25.6526 25.7289 25.0971 26.1389 24.6248 26.6667H23.3332V21.6667Z" fill="#2D4BF3"/>
</svg>
