<svg width="158" height="49" viewBox="0 0 158 49" fill="none" xmlns="http://www.w3.org/2000/svg">
<rect width="158" height="49" rx="24.5" fill="white"/>
<g clip-path="url(#clip0_5206_40857)">
<path d="M30.7064 23.6525L22.0852 15.0081L33.0539 21.305L30.7064 23.6525ZM19.8358 14.5C19.3277 14.7656 18.9883 15.25 18.9883 15.8788V33.1169C18.9883 33.7456 19.3283 34.23 19.8358 34.4956L29.8595 24.4956L19.8358 14.5ZM36.4445 23.3125L34.1439 21.9806L31.5777 24.5L34.1439 27.0194L36.4914 25.6875C37.1945 25.1294 37.1945 23.8713 36.4445 23.3125V23.3125ZM22.0858 33.9925L33.0545 27.6956L30.707 25.3481L22.0858 33.9925Z" fill="#111111"/>
</g>
<path d="M54.9063 19.144C54.1223 19.144 53.4343 18.964 52.8423 18.604C52.2503 18.236 51.7903 17.728 51.4623 17.08C51.1343 16.424 50.9703 15.668 50.9703 14.812C50.9703 13.956 51.1343 13.2 51.4623 12.544C51.7983 11.888 52.2703 11.376 52.8783 11.008C53.4943 10.64 54.2183 10.456 55.0503 10.456C55.9943 10.456 56.7782 10.684 57.4023 11.14C58.0343 11.596 58.4423 12.224 58.6263 13.024H57.4622C57.3503 12.52 57.0823 12.12 56.6583 11.824C56.2423 11.528 55.7063 11.38 55.0503 11.38C54.4343 11.38 53.8983 11.52 53.4423 11.8C52.9863 12.072 52.6303 12.464 52.3743 12.976C52.1263 13.488 52.0023 14.1 52.0023 14.812C52.0023 15.524 52.1263 16.136 52.3743 16.648C52.6223 17.16 52.9663 17.556 53.4062 17.836C53.8463 18.108 54.3583 18.244 54.9423 18.244C55.8383 18.244 56.5143 17.984 56.9703 17.464C57.4263 16.936 57.6863 16.216 57.7503 15.304H55.3263V14.512H58.7823V19H57.8583L57.7743 17.62C57.4703 18.108 57.0983 18.484 56.6583 18.748C56.2183 19.012 55.6343 19.144 54.9063 19.144ZM62.9923 19.144C62.4243 19.144 61.9203 19.016 61.4803 18.76C61.0403 18.496 60.6923 18.132 60.4363 17.668C60.1883 17.204 60.0643 16.656 60.0643 16.024C60.0643 15.4 60.1883 14.856 60.4363 14.392C60.6843 13.92 61.0283 13.556 61.4683 13.3C61.9163 13.036 62.4323 12.904 63.0163 12.904C63.5923 12.904 64.0883 13.036 64.5043 13.3C64.9283 13.556 65.2523 13.896 65.4763 14.32C65.7003 14.744 65.8123 15.2 65.8123 15.688C65.8123 15.776 65.8083 15.864 65.8003 15.952C65.8003 16.04 65.8003 16.14 65.8003 16.252H61.0603C61.0843 16.708 61.1883 17.088 61.3723 17.392C61.5643 17.688 61.8003 17.912 62.0803 18.064C62.3683 18.216 62.6723 18.292 62.9923 18.292C63.4083 18.292 63.7563 18.196 64.0363 18.004C64.3163 17.812 64.5203 17.552 64.6483 17.224H65.6443C65.4843 17.776 65.1763 18.236 64.7203 18.604C64.2723 18.964 63.6963 19.144 62.9923 19.144ZM62.9923 13.756C62.5123 13.756 62.0843 13.904 61.7083 14.2C61.3403 14.488 61.1283 14.912 61.0723 15.472H64.8163C64.7923 14.936 64.6083 14.516 64.2643 14.212C63.9203 13.908 63.4963 13.756 62.9923 13.756ZM69.3011 19C68.7571 19 68.3291 18.868 68.0171 18.604C67.7051 18.34 67.5491 17.864 67.5491 17.176V13.9H66.5171V13.048H67.5491L67.6811 11.62H68.5571V13.048H70.3091V13.9H68.5571V17.176C68.5571 17.552 68.6331 17.808 68.7851 17.944C68.9371 18.072 69.2051 18.136 69.5891 18.136H70.2131V19H69.3011ZM75.3775 11.728C75.1775 11.728 75.0095 11.664 74.8735 11.536C74.7455 11.4 74.6815 11.232 74.6815 11.032C74.6815 10.84 74.7455 10.68 74.8735 10.552C75.0095 10.424 75.1775 10.36 75.3775 10.36C75.5695 10.36 75.7335 10.424 75.8695 10.552C76.0055 10.68 76.0735 10.84 76.0735 11.032C76.0735 11.232 76.0055 11.4 75.8695 11.536C75.7335 11.664 75.5695 11.728 75.3775 11.728ZM74.8735 19V13.048H75.8815V19H74.8735ZM79.9886 19C79.4446 19 79.0166 18.868 78.7046 18.604C78.3926 18.34 78.2366 17.864 78.2366 17.176V13.9H77.2046V13.048H78.2366L78.3686 11.62H79.2446V13.048H80.9966V13.9H79.2446V17.176C79.2446 17.552 79.3206 17.808 79.4726 17.944C79.6246 18.072 79.8926 18.136 80.2766 18.136H80.9006V19H79.9886ZM88.165 19.144C87.605 19.144 87.101 19.016 86.653 18.76C86.205 18.504 85.849 18.144 85.585 17.68C85.329 17.208 85.201 16.656 85.201 16.024C85.201 15.392 85.333 14.844 85.597 14.38C85.861 13.908 86.217 13.544 86.665 13.288C87.121 13.032 87.629 12.904 88.189 12.904C88.749 12.904 89.253 13.032 89.701 13.288C90.149 13.544 90.501 13.908 90.757 14.38C91.021 14.844 91.153 15.392 91.153 16.024C91.153 16.656 91.021 17.208 90.757 17.68C90.493 18.144 90.133 18.504 89.677 18.76C89.229 19.016 88.725 19.144 88.165 19.144ZM88.165 18.28C88.509 18.28 88.829 18.196 89.125 18.028C89.421 17.86 89.661 17.608 89.845 17.272C90.029 16.936 90.121 16.52 90.121 16.024C90.121 15.528 90.029 15.112 89.845 14.776C89.669 14.44 89.433 14.188 89.137 14.02C88.841 13.852 88.525 13.768 88.189 13.768C87.845 13.768 87.525 13.852 87.229 14.02C86.933 14.188 86.693 14.44 86.509 14.776C86.325 15.112 86.233 15.528 86.233 16.024C86.233 16.52 86.325 16.936 86.509 17.272C86.693 17.608 86.929 17.86 87.217 18.028C87.513 18.196 87.829 18.28 88.165 18.28ZM92.5546 19V13.048H93.4666L93.5266 14.116C93.7186 13.74 93.9946 13.444 94.3546 13.228C94.7146 13.012 95.1226 12.904 95.5786 12.904C96.2826 12.904 96.8426 13.12 97.2586 13.552C97.6826 13.976 97.8946 14.632 97.8946 15.52V19H96.8866V15.628C96.8866 14.388 96.3746 13.768 95.3506 13.768C94.8386 13.768 94.4106 13.956 94.0666 14.332C93.7306 14.7 93.5626 15.228 93.5626 15.916V19H92.5546Z" fill="#111111"/>
<path d="M55.5723 37.168C54.6483 37.168 53.8409 36.958 53.1503 36.538C52.4596 36.118 51.9229 35.53 51.5403 34.774C51.1576 34.018 50.9663 33.136 50.9663 32.128C50.9663 31.1293 51.1623 30.2473 51.5543 29.482C51.9463 28.7167 52.5016 28.1193 53.2203 27.69C53.9483 27.2513 54.8069 27.032 55.7963 27.032C56.9163 27.032 57.8496 27.3027 58.5963 27.844C59.3429 28.3853 59.8283 29.132 60.0523 30.084H58.3723C58.2229 29.5613 57.9289 29.1507 57.4903 28.852C57.0516 28.5533 56.4869 28.404 55.7963 28.404C54.7696 28.404 53.9623 28.7353 53.3743 29.398C52.7863 30.0607 52.4923 30.9753 52.4923 32.142C52.4923 33.3087 52.7816 34.2187 53.3603 34.872C53.9389 35.5253 54.7089 35.852 55.6703 35.852C56.6409 35.852 57.3689 35.5767 57.8543 35.026C58.3489 34.4753 58.6383 33.7427 58.7223 32.828H56.0623V31.68H60.2203V37H58.8623L58.7363 35.558C58.4096 36.0713 57.9989 36.468 57.5043 36.748C57.0096 37.028 56.3656 37.168 55.5723 37.168ZM65.2133 37.168C64.5507 37.168 63.9533 37.0187 63.4213 36.72C62.8987 36.412 62.4833 35.9873 62.1753 35.446C61.8673 34.8953 61.7133 34.256 61.7133 33.528C61.7133 32.8 61.8673 32.1653 62.1753 31.624C62.4927 31.0733 62.9173 30.6487 63.4493 30.35C63.9813 30.042 64.574 29.888 65.2273 29.888C65.89 29.888 66.4827 30.042 67.0053 30.35C67.5373 30.6487 67.9573 31.0733 68.2653 31.624C68.5827 32.1653 68.7413 32.8 68.7413 33.528C68.7413 34.256 68.5827 34.8953 68.2653 35.446C67.9573 35.9873 67.5373 36.412 67.0053 36.72C66.4733 37.0187 65.876 37.168 65.2133 37.168ZM65.2133 35.894C65.568 35.894 65.8947 35.8053 66.1933 35.628C66.5013 35.4507 66.7487 35.1893 66.9353 34.844C67.122 34.4893 67.2153 34.0507 67.2153 33.528C67.2153 33.0053 67.122 32.5713 66.9353 32.226C66.758 31.8713 66.5153 31.6053 66.2073 31.428C65.9087 31.2507 65.582 31.162 65.2273 31.162C64.8727 31.162 64.5413 31.2507 64.2333 31.428C63.9347 31.6053 63.692 31.8713 63.5053 32.226C63.3187 32.5713 63.2253 33.0053 63.2253 33.528C63.2253 34.0507 63.3187 34.4893 63.5053 34.844C63.692 35.1893 63.9347 35.4507 64.2333 35.628C64.532 35.8053 64.8587 35.894 65.2133 35.894ZM73.5942 37.168C72.9315 37.168 72.3342 37.0187 71.8022 36.72C71.2795 36.412 70.8642 35.9873 70.5562 35.446C70.2482 34.8953 70.0942 34.256 70.0942 33.528C70.0942 32.8 70.2482 32.1653 70.5562 31.624C70.8735 31.0733 71.2982 30.6487 71.8302 30.35C72.3622 30.042 72.9549 29.888 73.6082 29.888C74.2709 29.888 74.8635 30.042 75.3862 30.35C75.9182 30.6487 76.3382 31.0733 76.6462 31.624C76.9635 32.1653 77.1222 32.8 77.1222 33.528C77.1222 34.256 76.9635 34.8953 76.6462 35.446C76.3382 35.9873 75.9182 36.412 75.3862 36.72C74.8542 37.0187 74.2569 37.168 73.5942 37.168ZM73.5942 35.894C73.9489 35.894 74.2755 35.8053 74.5742 35.628C74.8822 35.4507 75.1295 35.1893 75.3162 34.844C75.5029 34.4893 75.5962 34.0507 75.5962 33.528C75.5962 33.0053 75.5029 32.5713 75.3162 32.226C75.1389 31.8713 74.8962 31.6053 74.5882 31.428C74.2895 31.2507 73.9629 31.162 73.6082 31.162C73.2535 31.162 72.9222 31.2507 72.6142 31.428C72.3155 31.6053 72.0729 31.8713 71.8862 32.226C71.6995 32.5713 71.6062 33.0053 71.6062 33.528C71.6062 34.0507 71.6995 34.4893 71.8862 34.844C72.0729 35.1893 72.3155 35.4507 72.6142 35.628C72.9129 35.8053 73.2395 35.894 73.5942 35.894ZM81.1999 34.872C80.8359 34.872 80.4999 34.83 80.1919 34.746L79.5899 35.334C79.6926 35.3993 79.8186 35.4553 79.9679 35.502C80.1173 35.5487 80.3273 35.5907 80.5979 35.628C80.8686 35.6653 81.2373 35.7027 81.7039 35.74C82.6279 35.824 83.2953 36.048 83.7059 36.412C84.1166 36.7667 84.3219 37.2427 84.3219 37.84C84.3219 38.2507 84.2099 38.638 83.9859 39.002C83.7713 39.3753 83.4306 39.674 82.9639 39.898C82.5066 40.1313 81.9186 40.248 81.1999 40.248C80.2293 40.248 79.4406 40.0613 78.8339 39.688C78.2366 39.324 77.9379 38.7687 77.9379 38.022C77.9379 37.7327 78.0126 37.4433 78.1619 37.154C78.3206 36.874 78.5679 36.608 78.9039 36.356C78.7079 36.272 78.5353 36.1833 78.3859 36.09C78.2459 35.9873 78.1199 35.8847 78.0079 35.782V35.446L79.2119 34.214C78.6706 33.7473 78.3999 33.136 78.3999 32.38C78.3999 31.9227 78.5073 31.5073 78.7219 31.134C78.9459 30.7513 79.2679 30.448 79.6879 30.224C80.1079 30 80.6119 29.888 81.1999 29.888C81.5919 29.888 81.9559 29.944 82.2919 30.056H84.8819V31.036L83.6499 31.106C83.8739 31.4887 83.9859 31.9133 83.9859 32.38C83.9859 32.8467 83.8739 33.2667 83.6499 33.64C83.4353 34.0133 83.1179 34.312 82.6979 34.536C82.2873 34.76 81.7879 34.872 81.1999 34.872ZM81.1999 33.71C81.6293 33.71 81.9746 33.598 82.2359 33.374C82.5066 33.1407 82.6419 32.814 82.6419 32.394C82.6419 31.9647 82.5066 31.638 82.2359 31.414C81.9746 31.19 81.6293 31.078 81.1999 31.078C80.7613 31.078 80.4066 31.19 80.1359 31.414C79.8746 31.638 79.7439 31.9647 79.7439 32.394C79.7439 32.814 79.8746 33.1407 80.1359 33.374C80.4066 33.598 80.7613 33.71 81.1999 33.71ZM79.3379 37.882C79.3379 38.2833 79.5153 38.582 79.8699 38.778C80.2246 38.9833 80.6679 39.086 81.1999 39.086C81.7133 39.086 82.1286 38.974 82.4459 38.75C82.7633 38.5353 82.9219 38.246 82.9219 37.882C82.9219 37.6113 82.8146 37.378 82.5999 37.182C82.3853 36.9953 81.9793 36.8787 81.3819 36.832C80.9339 36.804 80.5373 36.762 80.1919 36.706C79.8653 36.8833 79.6413 37.0747 79.5199 37.28C79.3986 37.4853 79.3379 37.686 79.3379 37.882ZM86.2056 37V26.92H87.6896V37H86.2056ZM92.8169 37.168C92.1355 37.168 91.5289 37.0187 90.9969 36.72C90.4742 36.412 90.0635 35.9873 89.7649 35.446C89.4662 34.9047 89.3169 34.2747 89.3169 33.556C89.3169 32.828 89.4615 32.1887 89.7509 31.638C90.0495 31.0873 90.4602 30.658 90.9829 30.35C91.5149 30.042 92.1309 29.888 92.8309 29.888C93.5122 29.888 94.1049 30.042 94.6089 30.35C95.1129 30.6487 95.5049 31.05 95.7849 31.554C96.0649 32.058 96.2049 32.6133 96.2049 33.22C96.2049 33.3133 96.2002 33.416 96.1909 33.528C96.1909 33.6307 96.1862 33.7473 96.1769 33.878H90.7729C90.8195 34.55 91.0389 35.0633 91.4309 35.418C91.8322 35.7633 92.2942 35.936 92.8169 35.936C93.2369 35.936 93.5869 35.8427 93.8669 35.656C94.1562 35.46 94.3709 35.1987 94.5109 34.872H95.9949C95.8082 35.5253 95.4349 36.0713 94.8749 36.51C94.3242 36.9487 93.6382 37.168 92.8169 37.168ZM92.8169 31.106C92.3222 31.106 91.8835 31.2553 91.5009 31.554C91.1182 31.8433 90.8849 32.282 90.8009 32.87H94.7209C94.6929 32.3287 94.5015 31.8993 94.1469 31.582C93.7922 31.2647 93.3489 31.106 92.8169 31.106ZM101.328 37V27.2H104.758C105.523 27.2 106.158 27.3307 106.662 27.592C107.166 27.844 107.539 28.194 107.782 28.642C108.034 29.0807 108.16 29.58 108.16 30.14C108.16 30.672 108.039 31.162 107.796 31.61C107.563 32.0487 107.194 32.3987 106.69 32.66C106.186 32.9213 105.542 33.052 104.758 33.052H102.812V37H101.328ZM102.812 31.834H104.688C105.388 31.834 105.887 31.6847 106.186 31.386C106.494 31.078 106.648 30.6627 106.648 30.14C106.648 29.5987 106.494 29.1787 106.186 28.88C105.887 28.572 105.388 28.418 104.688 28.418H102.812V31.834ZM109.571 37V26.92H111.055V37H109.571ZM115.286 37.168C114.698 37.168 114.213 37.07 113.83 36.874C113.447 36.678 113.163 36.4213 112.976 36.104C112.789 35.7773 112.696 35.4227 112.696 35.04C112.696 34.368 112.957 33.836 113.48 33.444C114.003 33.052 114.749 32.856 115.72 32.856H117.54V32.73C117.54 32.1887 117.391 31.7827 117.092 31.512C116.803 31.2413 116.425 31.106 115.958 31.106C115.547 31.106 115.188 31.2087 114.88 31.414C114.581 31.61 114.399 31.904 114.334 32.296H112.85C112.897 31.792 113.065 31.3627 113.354 31.008C113.653 30.644 114.026 30.3687 114.474 30.182C114.931 29.986 115.431 29.888 115.972 29.888C116.943 29.888 117.694 30.1447 118.226 30.658C118.758 31.162 119.024 31.8527 119.024 32.73V37H117.736L117.61 35.81C117.414 36.1927 117.129 36.5147 116.756 36.776C116.383 37.0373 115.893 37.168 115.286 37.168ZM115.58 35.964C115.981 35.964 116.317 35.8707 116.588 35.684C116.868 35.488 117.083 35.2313 117.232 34.914C117.391 34.5967 117.489 34.2467 117.526 33.864H115.874C115.286 33.864 114.866 33.9667 114.614 34.172C114.371 34.3773 114.25 34.634 114.25 34.942C114.25 35.2593 114.367 35.5113 114.6 35.698C114.843 35.8753 115.169 35.964 115.58 35.964ZM121.348 40.08L123.014 36.426H122.608L119.864 30.056H121.474L123.602 35.194L125.828 30.056H127.396L122.916 40.08H121.348Z" fill="#111111"/>
<defs>
<clipPath id="clip0_5206_40857">
<rect width="20" height="20" fill="white" transform="translate(18 14.5)"/>
</clipPath>
</defs>
</svg>
