<svg width="130" height="35" viewBox="0 0 130 35" fill="none" xmlns="http://www.w3.org/2000/svg">
<g opacity="0.9" clip-path="url(#clip0_4618_37854)">
<path d="M45.8281 28.1484V11.6875H56.4722V14.1098H48.8091V18.6247H55.7733V20.9767H48.8091V25.7267H56.4722V28.1484H45.8281Z" fill="white"/>
<path d="M62.6438 28.4326C61.6223 28.4326 60.725 28.2648 59.9518 27.9292C59.1785 27.5936 58.5598 27.1288 58.0955 26.5348C57.6309 25.9404 57.3413 25.226 57.2598 24.4734H60.2531C60.346 24.9263 60.5974 25.3129 61.0075 25.6332C61.4175 25.9534 61.9473 26.1135 62.5969 26.1135C63.2473 26.1135 63.7231 25.9806 64.0243 25.7147C64.3254 25.4488 64.4762 25.1443 64.4766 24.8013C64.4766 24.3035 64.2601 23.9637 63.8271 23.7821C63.394 23.6004 62.7907 23.4247 62.017 23.255C61.5215 23.1463 61.0188 23.0136 60.5089 22.8568C60.0206 22.7103 59.5498 22.5099 59.105 22.2595C58.6942 22.031 58.3408 21.7104 58.0721 21.3224C57.8091 20.9395 57.6776 20.467 57.6776 19.905C57.6776 18.8737 58.0838 18.0068 58.896 17.304C59.7083 16.6013 60.8491 16.25 62.3184 16.25C63.68 16.25 64.7669 16.5702 65.5792 17.2107C66.3915 17.8512 66.8749 18.7335 67.0294 19.8577H64.2215C64.0514 18.999 63.4094 18.5695 62.2956 18.569C61.7384 18.569 61.3091 18.6785 61.0075 18.8976C60.7059 19.1166 60.5551 19.3898 60.5551 19.717C60.5551 20.0613 60.7795 20.3347 61.2281 20.5371C61.6768 20.7396 62.2725 20.9262 63.0154 21.0971C63.8199 21.2842 64.5594 21.4916 65.2341 21.7194C65.9087 21.9471 66.4463 22.2829 66.8469 22.7268C67.2488 23.1719 67.4499 23.8082 67.4503 24.6358C67.474 25.327 67.2798 26.0081 66.8956 26.5808C66.5086 27.1587 65.9517 27.6117 65.2248 27.9398C64.498 28.2679 63.6377 28.4322 62.6438 28.4326Z" fill="white"/>
<path d="M73.5033 28.1502C72.2966 28.1502 71.3298 27.8536 70.603 27.2604C69.8762 26.6672 69.5126 25.6127 69.5122 24.097V19.0365H67.54V16.5302H69.5122L69.8604 13.4141H72.4827V16.5302H75.5919V19.0365H72.4827V24.1206C72.4827 24.6831 72.6025 25.0697 72.842 25.2805C73.0816 25.4912 73.4955 25.5966 74.0839 25.5966H75.5223V28.1477L73.5033 28.1502Z" fill="white"/>
<path d="M80.7879 28.4282C79.7973 28.4282 78.985 28.268 78.3511 27.9478C77.7171 27.6276 77.2446 27.202 76.9336 26.671C76.6233 26.1388 76.4626 25.5313 76.4689 24.9138C76.4689 23.8353 76.8868 22.9607 77.7225 22.2899C78.5582 21.6192 79.8113 21.2834 81.4819 21.2825H84.4062V21.0013C84.4062 20.2048 84.1818 19.6191 83.7332 19.2441C83.2845 18.8691 82.7276 18.6825 82.0624 18.6841C81.4593 18.6841 80.9331 18.8293 80.4841 19.1197C80.035 19.4101 79.7566 19.8357 79.649 20.3965H76.7481C76.8258 19.5532 77.1082 18.8192 77.5955 18.1944C78.0948 17.5603 78.7454 17.0644 79.4863 16.7534C80.26 16.4178 81.1263 16.25 82.0852 16.25C83.7254 16.25 85.0171 16.6638 85.9605 17.4913C86.9038 18.3189 87.3763 19.4903 87.3779 21.0057V28.1513H84.8511L84.5726 26.2771C84.2308 26.9036 83.7407 27.4349 83.1458 27.8233C82.5345 28.227 81.7485 28.4286 80.7879 28.4282ZM81.4609 26.0855C82.3114 26.0855 82.9727 25.8042 83.4447 25.2417C83.9168 24.6793 84.2147 23.9842 84.3384 23.1567H81.8116C81.0223 23.1567 80.4576 23.3019 80.1174 23.5922C79.7772 23.8826 79.6071 24.2379 79.6071 24.6581C79.6071 25.1111 79.7772 25.4624 80.1174 25.7121C80.4576 25.9619 80.9071 26.0863 81.4658 26.0855H81.4609Z" fill="white"/>
<path d="M93.8535 28.1502C92.6468 28.1502 91.6798 27.8536 90.9526 27.2604C90.2254 26.6672 89.8618 25.6127 89.8618 24.097V19.0365H87.8896V16.5302H89.8618L90.21 13.4141H92.8323V16.5302H95.9415V19.0365H92.8323V24.1206C92.8323 24.6831 92.9523 25.0697 93.1922 25.2805C93.4321 25.4912 93.8459 25.5966 94.4334 25.5966H95.8724V28.1477L93.8535 28.1502Z" fill="white"/>
<path d="M102.465 28.4294C101.305 28.4294 100.276 28.1805 99.3784 27.6827C98.4923 27.1944 97.7605 26.4638 97.267 25.5746C96.7559 24.6687 96.5006 23.6221 96.501 22.4349C96.501 21.2319 96.7524 20.1621 97.2553 19.2255C97.7348 18.3123 98.4584 17.5533 99.3439 17.0346C100.233 16.5111 101.281 16.2496 102.487 16.25C103.616 16.25 104.614 16.4989 105.48 16.9967C106.33 17.4797 107.032 18.1886 107.511 19.0463C107.998 19.9128 108.242 20.8773 108.242 21.9396C108.242 22.112 108.238 22.2912 108.23 22.4785C108.223 22.6657 108.211 22.8617 108.195 23.0646H99.4481C99.5097 23.9705 99.823 24.6811 100.388 25.1963C100.953 25.7115 101.637 25.9693 102.441 25.9697C103.045 25.9697 103.552 25.8331 103.962 25.5597C104.361 25.2987 104.678 24.9292 104.878 24.4938H107.895C107.677 25.2299 107.309 25.912 106.816 26.4968C106.308 27.1019 105.674 27.5859 104.96 27.9142C104.225 28.2577 103.393 28.4294 102.465 28.4294ZM102.488 18.6835C101.796 18.6727 101.12 18.8913 100.562 19.3057C100.005 19.7206 99.6494 20.3492 99.4949 21.1917H105.226C105.18 20.4272 104.901 19.8182 104.391 19.3649C103.88 18.9115 103.246 18.6843 102.488 18.6835Z" fill="white"/>
<path d="M112.445 12.1562V28.1473H109.672V12.1562H112.445Z" fill="#EACB30"/>
<path d="M129.148 20.1431C129.148 21.7609 128.823 23.1934 128.173 24.4408C127.523 25.6881 126.62 26.6615 125.465 27.3609C124.31 28.0611 122.974 28.411 121.459 28.4106C119.957 28.4106 118.628 28.0607 117.473 27.3609C116.322 26.6657 115.387 25.6577 114.776 24.452C114.133 23.2125 113.812 21.7835 113.812 20.1649C113.812 18.5322 114.137 17.0921 114.786 15.8448C115.436 14.5974 116.335 13.6243 117.483 12.9253C118.634 12.2255 119.966 11.8754 121.481 11.875C122.995 11.8746 124.327 12.2247 125.478 12.9253C126.626 13.6255 127.525 14.5951 128.175 15.8342C128.825 17.0733 129.149 18.5095 129.148 20.1431ZM126.245 20.1431C126.245 19.0057 126.05 18.0213 125.66 17.19C125.27 16.3587 124.721 15.7135 124.014 15.2543C123.305 14.7951 122.46 14.5655 121.479 14.5655C120.511 14.5655 119.67 14.7951 118.955 15.2543C118.24 15.7135 117.688 16.3587 117.298 17.19C116.908 18.0197 116.713 19.004 116.713 20.1431C116.713 21.2822 116.908 22.2701 117.298 23.1067C117.687 23.9455 118.24 24.5907 118.955 25.0425C119.67 25.4942 120.512 25.7203 121.479 25.7207C122.46 25.7207 123.305 25.4909 124.014 25.0313C124.722 24.5716 125.271 23.9229 125.66 23.085C126.05 22.2462 126.245 21.2656 126.245 20.1431ZM127.155 29.352L121.479 22.8809L123.233 21.2842L128.931 27.7554L127.155 29.352Z" fill="#EACB30"/>
<path d="M32.0024 29.9453H27.4258V34.2113H32.0024V29.9453Z" fill="white"/>
<path d="M6.18892 29.9453H1.6123V34.2113H6.18892V29.9453Z" fill="#EACB30"/>
<path d="M16.9131 0L1.83047 13.832C1.76179 13.895 1.70691 13.9719 1.66934 14.0576C1.63177 14.1433 1.61234 14.236 1.6123 14.3297V26.2303C1.61246 26.2349 1.61433 26.2392 1.61753 26.2425C1.62073 26.2457 1.62503 26.2476 1.62956 26.2478H8.92157V34.873H24.5385V30.7172C24.5384 30.6879 24.5267 30.6599 24.5062 30.6392C24.4856 30.6186 24.4578 30.607 24.4288 30.607H13.4982V26.2478H24.5385V21.9818H13.4982V18.1371H24.5385V13.9502C24.5385 13.9398 24.5365 13.9296 24.5325 13.92C24.5286 13.9105 24.5228 13.9018 24.5156 13.8945C24.5083 13.8872 24.4996 13.8815 24.4902 13.8776C24.4807 13.8737 24.4705 13.8717 24.4602 13.8718H8.92157V21.9812H6.18892V15.8212L16.9125 5.98576L27.4246 15.6233V26.2446H32.0006V14.0634C32.0007 13.9922 31.986 13.9218 31.9576 13.8567C31.9292 13.7915 31.8876 13.7331 31.8355 13.6851L16.9131 0Z" fill="white"/>
</g>
<defs>
<clipPath id="clip0_4618_37854">
<rect width="130" height="35" fill="white"/>
</clipPath>
</defs>
</svg>
