<svg width="80" height="80" viewBox="0 0 80 80" fill="none" xmlns="http://www.w3.org/2000/svg">
<path d="M40.0007 13.332C43.5369 13.332 46.9283 14.7368 49.4287 17.2373C51.9292 19.7378 53.334 23.1291 53.334 26.6654C53.334 30.2016 51.9292 33.593 49.4287 36.0935C46.9283 38.5939 43.5369 39.9987 40.0007 39.9987C36.4644 39.9987 33.073 38.5939 30.5726 36.0935C28.0721 33.593 26.6673 30.2016 26.6673 26.6654C26.6673 23.1291 28.0721 19.7378 30.5726 17.2373C33.073 14.7368 36.4644 13.332 40.0007 13.332ZM40.0007 46.6654C54.734 46.6654 66.6673 52.632 66.6673 59.9987V66.6654H13.334V59.9987C13.334 52.632 25.2673 46.6654 40.0007 46.6654Z" fill="url(#paint0_linear_7647_52537)"/>
<defs>
<linearGradient id="paint0_linear_7647_52537" x1="-83.6407" y1="-64.1654" x2="112.889" y2="-99.3672" gradientUnits="userSpaceOnUse">
<stop offset="0.297847" stop-color="#009BA2"/>
<stop offset="0.634591" stop-color="#BC658D"/>
</linearGradient>
</defs>
</svg>
