<svg width="48" height="38" viewBox="0 0 48 38" fill="none" xmlns="http://www.w3.org/2000/svg">
<path d="M46.1023 0V2.78743C42.2326 4.22854 39.2 6.50399 37.0047 9.61377C34.8093 12.6856 33.7116 15.8902 33.7116 19.2275C33.7116 19.9481 33.8233 20.479 34.0465 20.8204C34.1953 21.0479 34.3628 21.1617 34.5488 21.1617C34.7349 21.1617 35.014 21.0289 35.386 20.7635C36.5767 19.8912 38.0837 19.4551 39.907 19.4551C42.0279 19.4551 43.907 20.3463 45.5442 22.1287C47.1814 23.8733 48 25.9591 48 28.3862C48 30.9271 47.0512 33.1647 45.1535 35.0988C43.293 37.0329 41.0233 38 38.3442 38C35.2186 38 32.5209 36.6916 30.2512 34.0748C27.9814 31.4581 26.8465 27.9501 26.8465 23.5509C26.8465 18.4311 28.3907 13.8423 31.4791 9.78443C34.5674 5.72655 39.4419 2.46507 46.1023 0ZM19.2558 0V2.78743C15.386 4.22854 12.3535 6.50399 10.1581 9.61377C7.96279 12.6856 6.86512 15.8902 6.86512 19.2275C6.86512 19.9481 6.97674 20.479 7.2 20.8204C7.34884 21.0479 7.51628 21.1617 7.70233 21.1617C7.88837 21.1617 8.16744 21.0289 8.53953 20.7635C9.73023 19.8912 11.2372 19.4551 13.0605 19.4551C15.1814 19.4551 17.0605 20.3463 18.6977 22.1287C20.3349 23.8733 21.1535 25.9591 21.1535 28.3862C21.1535 30.9271 20.2047 33.1647 18.307 35.0988C16.4465 37.0329 14.1767 38 11.4977 38C8.37209 38 5.67442 36.6916 3.40465 34.0748C1.13488 31.4581 0 27.9501 0 23.5509C0 18.4311 1.54419 13.8423 4.63256 9.78443C7.72093 5.72655 12.5953 2.46507 19.2558 0Z" fill="#3D3D3D"/>
</svg>
