<svg width="32" height="32" viewBox="0 0 32 32" fill="none" xmlns="http://www.w3.org/2000/svg">
<g opacity="0.8">
<path d="M21.333 18.6654H23.333V22.4254L26.5863 24.3054L25.5863 26.0387L21.333 23.5854V18.6654ZM22.6663 15.9987C20.8982 15.9987 19.2025 16.7011 17.9523 17.9513C16.7021 19.2016 15.9997 20.8973 15.9997 22.6654C15.9997 24.4335 16.7021 26.1292 17.9523 27.3794C19.2025 28.6297 20.8982 29.332 22.6663 29.332C24.4345 29.332 26.1301 28.6297 27.3804 27.3794C28.6306 26.1292 29.333 24.4335 29.333 22.6654C29.333 20.8973 28.6306 19.2016 27.3804 17.9513C26.1301 16.7011 24.4345 15.9987 22.6663 15.9987ZM22.6663 13.332C25.1417 13.332 27.5157 14.3154 29.266 16.0657C31.0163 17.816 31.9997 20.19 31.9997 22.6654C31.9997 25.1407 31.0163 27.5147 29.266 29.265C27.5157 31.0154 25.1417 31.9987 22.6663 31.9987C18.9463 31.9987 15.733 29.812 14.2263 26.6654H1.33301V22.6654C1.33301 19.1187 8.43967 17.332 11.9997 17.332C12.7997 17.332 13.7863 17.4254 14.8263 17.5987C15.672 16.2886 16.8329 15.2115 18.2025 14.4661C19.5722 13.7207 21.107 13.3308 22.6663 13.332ZM13.333 22.6654C13.333 21.732 13.4663 20.8254 13.7197 19.9987C13.1597 19.9054 12.573 19.8654 11.9997 19.8654C8.03967 19.8654 3.86634 21.812 3.86634 22.6654V24.132H13.453C13.3728 23.6473 13.3327 23.1567 13.333 22.6654ZM11.9997 5.33203C13.4142 5.33203 14.7707 5.89393 15.7709 6.89413C16.7711 7.89432 17.333 9.25088 17.333 10.6654C17.333 12.0799 16.7711 13.4364 15.7709 14.4366C14.7707 15.4368 13.4142 15.9987 11.9997 15.9987C10.5852 15.9987 9.22863 15.4368 8.22844 14.4366C7.22824 13.4364 6.66634 12.0799 6.66634 10.6654C6.66634 9.25088 7.22824 7.89432 8.22844 6.89413C9.22863 5.89393 10.5852 5.33203 11.9997 5.33203ZM11.9997 7.86536C11.2571 7.86536 10.5449 8.16036 10.0198 8.68547C9.49467 9.21057 9.19967 9.92276 9.19967 10.6654C9.19967 11.408 9.49467 12.1202 10.0198 12.6453C10.5449 13.1704 11.2571 13.4654 11.9997 13.4654C12.7423 13.4654 13.4545 13.1704 13.9796 12.6453C14.5047 12.1202 14.7997 11.408 14.7997 10.6654C14.7997 9.92276 14.5047 9.21057 13.9796 8.68547C13.4545 8.16036 12.7423 7.86536 11.9997 7.86536Z" fill="#2D4BF3"/>
</g>
</svg>
